<svg width="35" height="34" viewBox="0 0 35 34" fill="none" xmlns="http://www.w3.org/2000/svg">
<path fill-rule="evenodd" clip-rule="evenodd" d="M22.5474 11.5025C25.5658 11.7745 27.8187 9.11274 28.0884 6.30266C28.4102 3.29481 26.5835 0.896775 23.7304 0.608351C20.7816 0.303446 18.4939 2.50371 18.2416 5.32202C17.8763 8.05793 19.5899 11.2141 22.5474 11.5025ZM33.8389 12.5571C33.0995 11.5683 31.9774 10.909 30.6813 10.6948C27.8282 10.2333 25.3665 12.0462 24.8272 14.9964C24.2792 17.757 25.7753 20.8884 28.7415 21.3746C31.699 21.8526 34.239 19.3227 34.6826 16.5951C34.961 15.087 34.6565 13.6531 33.8389 12.5571ZM12.4397 11.5024C11.2654 11.6178 10.1259 11.2717 9.16039 10.53C5.55049 7.76938 6.15939 1.10267 11.248 0.608226C16.1627 0.154988 18.1286 5.85754 15.8409 9.35159C15.0406 10.5795 13.8054 11.3623 12.4397 11.5024ZM17.4595 14.4854C12.1969 14.5513 7.2996 24.9181 7.06474 28.4781C7.08214 33.3978 12.4752 33.5955 17.5204 33.5379H17.5291C17.9233 33.531 18.3149 33.5273 18.7026 33.5237C22.0185 33.4928 25.0411 33.4646 26.8713 31.4282C27.5237 30.6536 27.8542 29.6647 27.8542 28.4781C27.6281 24.9593 22.6873 14.5266 17.4595 14.4854ZM9.95249 15.0624C10.2569 16.727 9.9003 18.3917 8.96955 19.636C8.23888 20.6166 7.19505 21.2594 6.03815 21.449C3.07195 21.9269 0.531978 19.4053 0.0970514 16.6694C-0.172603 15.1531 0.123147 13.7192 0.940809 12.6232C1.68018 11.6343 2.8023 10.9668 4.09838 10.7608C6.9515 10.2911 9.41318 12.104 9.95249 15.0624Z" fill="#FF7751"/>
</svg>
